HIERARCHY
ROOT Hips
{
	OFFSET 0.00000 0.00000 0.00000
	CHANNELS 6 Xposition Yposition Zposition Zrotation Yrotation Xrotation 
	JOINT LHipJoint
	{
		OFFSET 0 0 0
		CHANNELS 3 Zrotation Yrotation Xrotation
		JOINT LeftUpLeg
		{
			OFFSET 1.80322 -1.53100 0.99595
			CHANNELS 3 Zrotation Yrotation Xrotation
			JOINT LeftLeg
			{
				OFFSET 2.25177 -6.18669 0.00000
				CHANNELS 3 Zrotation Yrotation Xrotation
				JOINT LeftFoot
				{
					OFFSET 2.26601 -6.22582 0.00000
					CHANNELS 3 Zrotation Yrotation Xrotation
					JOINT LeftToeBase
					{
						OFFSET 0.23701 -0.65119 2.15848
						CHANNELS 3 Zrotation Yrotation Xrotation
						End Site
						{
							OFFSET 0.00000 -0.00000 1.12949
						}
					}
				}
			}
		}
	}
	JOINT RHipJoint
	{
		OFFSET 0 0 0
		CHANNELS 3 Zrotation Yrotation Xrotation
		JOINT RightUpLeg
		{
			OFFSET -1.93977 -1.53100 0.99595
			CHANNELS 3 Zrotation Yrotation Xrotation
			JOINT RightLeg
			{
				OFFSET -2.28036 -6.26523 0.00000
				CHANNELS 3 Zrotation Yrotation Xrotation
				JOINT RightFoot
				{
					OFFSET -2.25490 -6.19528 0.00000
					CHANNELS 3 Zrotation Yrotation Xrotation
					JOINT RightToeBase
					{
						OFFSET -0.28375 -0.77960 2.23137
						CHANNELS 3 Zrotation Yrotation Xrotation
						End Site
						{
							OFFSET -0.00000 -0.00000 1.17899
						}
					}
				}
			}
		}
	}
	JOINT LowerBack
	{
		OFFSET 0 0 0
		CHANNELS 3 Zrotation Yrotation Xrotation
		JOINT Spine
		{
			OFFSET -0.00088 2.12090 -0.02806
			CHANNELS 3 Zrotation Yrotation Xrotation
			JOINT Spine1
			{
				OFFSET -0.00286 2.09666 0.12974
				CHANNELS 3 Zrotation Yrotation Xrotation
				JOINT Neck
				{
					OFFSET 0 0 0
					CHANNELS 3 Zrotation Yrotation Xrotation
					JOINT Neck1
					{
						OFFSET 0.07328 1.83526 0.07290
						CHANNELS 3 Zrotation Yrotation Xrotation
						JOINT Head
						{
							OFFSET -0.06683 1.74974 -0.49542
							CHANNELS 3 Zrotation Yrotation Xrotation
							End Site
							{
								OFFSET -0.03398 1.85163 -0.17573
							}
						}
					}
				}
				JOINT LeftShoulder
				{
					OFFSET 0 0 0
					CHANNELS 3 Zrotation Yrotation Xrotation
					JOINT LeftArm
					{
						OFFSET 3.02113 1.18018 0.40602
						CHANNELS 3 Zrotation Yrotation Xrotation
						JOINT LeftForeArm
						{
							OFFSET 4.58538 -0.00000 -0.00000
							CHANNELS 3 Zrotation Yrotation Xrotation
							JOINT LeftHand
							{
								OFFSET 2.68935 -0.00000 -0.00000
								CHANNELS 3 Zrotation Yrotation Xrotation
								JOINT LeftFingerBase
								{
									OFFSET 0 0 0
									CHANNELS 3 Zrotation Yrotation Xrotation
									JOINT LeftHandIndex1
									{
										OFFSET 0.58506 -0.00000 -0.00000
										CHANNELS 3 Zrotation Yrotation Xrotation
										End Site
										{
											OFFSET 0.47169 -0.00000 -0.00000
										}
									}
								}
								JOINT LThumb
								{
									OFFSET 0 0 0
									CHANNELS 3 Zrotation Yrotation Xrotation
									End Site
									{
										OFFSET 0.47889 -0.00000 0.47889
									}
								}
							}
						}
					}
				}
				JOINT RightShoulder
				{
					OFFSET 0 0 0
					CHANNELS 3 Zrotation Yrotation Xrotation
					JOINT RightArm
					{
						OFFSET -2.95074 1.18843 0.31430
						CHANNELS 3 Zrotation Yrotation Xrotation
						JOINT RightForeArm
						{
							OFFSET -4.47450 -0.00000 -0.00000
							CHANNELS 3 Zrotation Yrotation Xrotation
							JOINT RightHand
							{
								OFFSET -2.93896 -0.00000 -0.00000
								CHANNELS 3 Zrotation Yrotation Xrotation
								JOINT RightFingerBase
								{
									OFFSET 0 0 0
									CHANNELS 3 Zrotation Yrotation Xrotation
									JOINT RightHandIndex1
									{
										OFFSET -0.40509 -0.00000 -0.00000
										CHANNELS 3 Zrotation Yrotation Xrotation
										End Site
										{
											OFFSET -0.32660 -0.00000 -0.00000
										}
									}
								}
								JOINT RThumb
								{
									OFFSET 0 0 0
									CHANNELS 3 Zrotation Yrotation Xrotation
									End Site
									{
										OFFSET -0.33158 -0.00000 0.33158
									}
								}
							}
						}
					}
				}
			}
		}
	}
}
MOTION
Frames: 7
Frame Time: .0083333
-0.5584 15.8627 4.084 0 0 0 0 0 0 -21 0 0 0 0 0 0 0 0 0 0 0 0 0 0 21 0 0 0 0 0 0 0 0 0 0 0 0 0 0 0 0 0 0 0 0 0 0 -16 0 0 21 0 0 11 0 0 0 -8 0 0 0 0 0 0 0 0 0 0 0 0 0 0 0 0 0 0 0 0 8 0 0 0 0 0 0 0 0 0 0 0 0 0 0 0 0 0
-0.5584 15.8627 4.0840 0.5868 -10.8702 6.0686 0.0000 0.0000 0.0000 -15.5767 1.8617 4.5887 0.0000 0.0000 0.0000 -0.1761 10.9072 -12.5027 0.0098 0.6387 1.7552 0.0000 0.0000 0.0000 12.9658 14.1638 -5.3326 -1.0533 -6.5259 18.3183 0.1622 -13.9237 -17.7900 -0.0545 1.5058 -4.1418 -0.4524 -2.0118 -2.2949 0.7385 -2.6920 -6.9058 1.0947 -1.3050 -5.8118 -1.9120 -8.3652 -10.7064 -0.2231 -11.5584 25.1482 -1.1072 -5.6283 9.8245 -0.0000 -0.0000 0.0000 -88.6524 13.1114 18.5580 16.7596 -26.5398 -3.9793 -0.0000 -0.0000 20.8871 5.8353 12.1805 1.2353 -7.1250 0.0000 -0.0000 -18.9300 41.4374 1.7330 -0.0000 -0.0000 0.0000 83.6181 -5.7591 23.9797 -12.3693 20.3562 -2.2291 0.0000 0.0000 13.9293 -10.3093 -5.7447 1.0431 7.1250 -0.0000 -0.0000 13.6307 -35.5349 3.2459
-0.5568 15.8635 4.0822 0.5927 -10.8571 6.0504 0.0000 0.0000 0.0000 -15.5883 1.8498 4.5988 0.0000 0.0000 0.0000 -0.1777 10.9169 -12.4888 0.0095 0.6300 1.7311 0.0000 0.0000 0.0000 12.9576 14.1164 -5.3301 -1.0520 -6.5219 18.3064 0.1620 -13.9121 -17.7754 -0.0557 1.5224 -4.1875 -0.4241 -2.0093 -2.2695 0.7320 -2.6885 -6.8745 1.0723 -1.3050 -5.7947 -1.8508 -8.3181 -10.7967 -0.2266 -11.5007 25.1463 -1.1156 -5.5946 9.8360 0.0000 -0.0000 0.0000 -88.6758 13.0987 18.6344 16.7580 -26.5376 -3.9786 -0.0000 -0.0000 20.8661 5.8919 12.1638 1.2457 -7.1250 0.0000 -0.0000 -18.8767 41.4269 1.7329 0.0000 -0.0000 0.0000 83.5989 -5.7292 23.6113 -12.2518 20.1812 -2.1884 0.0000 0.0000 14.2212 -10.3454 -5.5663 1.0144 7.1250 -0.0000 -0.0000 13.5683 -35.3607 3.2894
-0.5557 15.8638 4.0800 0.5848 -10.8406 6.0444 0.0000 0.0000 0.0000 -15.5811 1.8305 4.5926 0.0000 -0.0000 -0.0000 -0.1792 10.9274 -12.4768 0.0095 0.6297 1.7303 0.0000 0.0000 0.0000 12.9713 14.1637 -5.3111 -1.0526 -6.5239 18.3123 0.1694 -13.9789 -17.7825 -0.0557 1.5227 -4.1882 -0.3978 -2.0158 -2.2416 0.7395 -2.6964 -6.8554 1.0662 -1.3101 -5.7910 -1.8485 -8.3054 -10.8186 -0.2088 -11.4834 25.0868 -1.1070 -5.5847 9.8197 0.0000 0.0000 0.0000 -88.7135 13.1020 18.6251 16.7576 -26.5371 -3.9784 -0.0000 -0.0000 20.9349 5.8873 12.1357 1.2418 -7.1250 0.0000 -0.0000 -18.8720 41.3997 1.7456 0.0000 0.0000 0.0000 83.5664 -5.7264 23.1849 -12.1499 20.0291 -2.1534 0.0000 0.0000 14.5772 -10.2379 -5.2920 0.9543 7.1250 -0.0000 -0.0000 13.6057 -35.0845 3.3929
-0.5540 15.8636 4.0782 0.6074 -10.8402 6.0220 0.0000 0.0000 0.0000 -15.6115 1.8305 4.6041 0.0000 -0.0000 -0.0000 -0.1804 10.9334 -12.4641 0.0092 0.6205 1.7052 0.0000 0.0000 0.0000 12.9439 14.1572 -5.3025 -1.0532 -6.5256 18.3172 0.1694 -13.9803 -17.7854 -0.0561 1.5283 -4.2037 -0.4011 -2.0187 -2.1915 0.7398 -2.7003 -6.8355 1.0700 -1.3117 -5.7981 -1.8071 -8.2624 -10.9041 -0.2081 -11.4277 25.0645 -1.1102 -5.5537 9.8246 -0.0000 -0.0000 0.0000 -88.7526 13.1178 18.6290 16.7612 -26.5419 -3.9800 -0.0000 -0.0000 20.9378 5.8915 12.1235 1.2415 -7.1250 0.0000 -0.0000 -18.8648 41.3886 1.7502 -0.0000 -0.0000 0.0000 83.5311 -5.7368 23.0007 -12.2518 20.1812 -2.1884 0.0000 0.0000 15.2693 -9.3501 -7.1923 1.1810 7.1250 -0.0000 -0.0000 14.7035 -36.9024 3.0089
-0.5525 15.8636 4.0762 0.6184 -10.8302 6.0049 0.0000 0.0000 0.0000 -15.6279 1.8198 4.6100 0.0000 0.0000 0.0000 -0.1820 10.9433 -12.4497 0.0090 0.6119 1.6816 0.0000 0.0000 0.0000 12.9317 14.1611 -5.2940 -1.0542 -6.5285 18.3259 0.1714 -13.9993 -17.7889 -0.0563 1.5307 -4.2103 -0.3905 -2.0225 -2.1477 0.7421 -2.7051 -6.8159 1.0679 -1.3145 -5.8025 -1.7930 -8.2365 -10.9635 -0.1951 -11.3932 25.0239 -1.1056 -5.5343 9.8209 0.0000 0.0000 0.0000 -88.7865 13.1292 18.6427 16.7631 -26.5444 -3.9809 -0.0000 -0.0000 20.9411 5.8876 12.1087 1.2392 -7.1250 0.0000 -0.0000 -18.8636 41.3742 1.7571 0.0000 0.0000 0.0000 83.4951 -5.7484 22.7595 -12.2103 20.1192 -2.1741 0.0000 0.0000 15.4915 -9.2137 -7.6234 1.2327 7.1250 -0.0000 -0.0000 14.9082 -37.3155 2.8977
-0.5509 15.8636 4.0743 0.6312 -10.8203 5.9847 0.0000 0.0000 0.0000 -15.6462 1.8099 4.6185 0.0000 -0.0000 -0.0000 -0.1836 10.9535 -12.4343 0.0087 0.6009 1.6513 0.0000 0.0000 0.0000 12.9179 14.1652 -5.2866 -1.0561 -6.5344 18.3430 0.1726 -14.0145 -17.7963 -0.0563 1.5317 -4.2130 -0.3832 -2.0263 -2.0977 0.7451 -2.7099 -6.7963 1.0685 -1.3170 -5.8103 -1.7846 -8.2141 -11.0232 -0.1820 -11.3622 24.9778 -1.1003 -5.5172 9.8158 -0.0000 0.0000 0.0000 -88.8198 13.1440 18.6529 16.7658 -26.5480 -3.9821 -0.0000 -0.0000 20.9387 5.8749 12.1023 1.2359 -7.1250 0.0000 -0.0000 -18.8724 41.3670 1.7615 -0.0000 0.0000 0.0000 83.4568 -5.7672 22.5542 -12.1512 20.0309 -2.1538 0.0000 0.0000 15.5476 -9.2833 -7.8517 1.2792 7.1250 -0.0000 -0.0000 14.9004 -37.5434 2.8103
